<svg xmlns="http://www.w3.org/2000/svg" fill="none" width="34.965" height="34.279" xmlns:v="https://vecta.io/nano"><path fill="#4b3bed" d="M0 0h17.323c9.567 0 17.323 7.756 17.323 17.323s-7.756 17.323-17.323 17.323H0V0zm16.827 14.967c.761-.86 1.226-2.009 1.226-3.27 0-1.111-.36-2.134-.966-2.95a4.11 4.11 0 0 1 2.58-.905 4.13 4.13 0 0 1 4.128 4.128 4.13 4.13 0 0 1-4.128 4.128c-1.1 0-2.099-.43-2.839-1.131zm-4.863 1.188c-2.565 0-4.644-2.079-4.644-4.644s2.079-4.644 4.644-4.644 4.644 2.079 4.644 4.644-2.079 4.644-4.644 4.644zm6.842 11.556v-5.357c0-2.257-1.286-4.191-3.114-5.003h3.949c2.88 0 5.215 2.335 5.215 5.215s-2.335 5.215-5.215 5.215a4.87 4.87 0 0 1-.835-.07zm-12.067.055v-5.225c0-2.886 2.289-5.225 5.113-5.225s5.646 2.339 5.646 5.225v5.225H6.739z" fill-rule="evenodd"/><path d="M181.151 26.708V7.711H185v18.997h-3.849zm-12.951 0V7.684h3.849v19.024H168.2zm2.866-8.006v-3.419h11.911v3.419h-11.911zm-12.767 8.332a10.52 10.52 0 0 1-2.781-.353c-.862-.235-1.63-.561-2.304-.977-.674-.434-1.236-.914-1.686-1.438-.43-.525-.711-1.076-.842-1.655l3.764-1.085c.244.615.674 1.149 1.292 1.601.618.434 1.396.66 2.332.679.993.018 1.798-.19 2.416-.624.637-.434.955-.995.955-1.683 0-.597-.252-1.094-.758-1.492-.487-.416-1.161-.733-2.023-.95l-2.556-.651c-.956-.235-1.798-.588-2.529-1.058-.73-.488-1.301-1.086-1.714-1.791s-.618-1.529-.618-2.469c0-1.791.609-3.184 1.827-4.179 1.236-1.013 2.977-1.52 5.225-1.52 1.255 0 2.35.181 3.287.543.955.344 1.751.841 2.388 1.493s1.124 1.42 1.461 2.307l-3.737 1.113c-.225-.615-.637-1.14-1.236-1.574s-1.358-.651-2.275-.651c-.937 0-1.677.208-2.22.624-.524.416-.786 1.004-.786 1.764 0 .597.206 1.067.618 1.411.43.344 1.011.606 1.741.787l2.585.624c1.686.398 2.997 1.113 3.933 2.144s1.405 2.18 1.405 3.447c0 1.122-.281 2.108-.843 2.958-.562.832-1.377 1.484-2.444 1.954s-2.36.706-3.877.706zm-12.47-.326L138.3 7.711h3.848l7.754 18.996h-4.073zm-15.536 0l7.754-18.996h3.849l-7.529 18.996h-4.074zm3.652-4.179v-3.284h12.333v3.284h-12.333zm-20.85 4.179V7.711h6.293c2.004 0 3.774.407 5.309 1.221 1.555.814 2.763 1.936 3.624 3.365.881 1.411 1.321 3.048 1.321 4.912 0 1.845-.44 3.483-1.321 4.912-.861 1.429-2.069 2.551-3.624 3.365-1.535.814-3.305 1.221-5.309 1.221h-6.293zm3.849-3.474h2.444c.899 0 1.732-.154 2.5-.461s1.433-.733 1.995-1.275a5.74 5.74 0 0 0 1.348-1.9 5.98 5.98 0 0 0 .478-2.388 5.79 5.79 0 0 0-.478-2.361 5.67 5.67 0 0 0-1.348-1.927c-.562-.543-1.227-.968-1.995-1.276s-1.601-.461-2.5-.461h-2.444v12.049z" fill="#111827"/><path fill="#030712" d="M44.27 23.728l1.433-2.106c.657.759 1.532 1.398 2.624 1.916a7.93 7.93 0 0 0 3.443.778c1.377 0 2.45-.297 3.219-.891.782-.594 1.172-1.372 1.172-2.333 0-.607-.211-1.119-.633-1.536s-.968-.74-1.638-.968-1.408-.436-2.215-.626l-2.438-.664a12.2 12.2 0 0 1-2.214-.93c-.67-.367-1.216-.885-1.638-1.555-.422-.683-.633-1.492-.633-2.428 0-1.543.608-2.827 1.824-3.851 1.216-1.037 2.884-1.556 5.006-1.556 2.804 0 5.074.911 6.811 2.732l-1.321 2.011c-.571-.708-1.34-1.277-2.308-1.707-.955-.443-2.016-.664-3.182-.664-1.228 0-2.215.285-2.959.854-.744.556-1.117 1.258-1.117 2.106 0 .544.211 1.005.633 1.385.422.367.961.658 1.619.873l2.215.588a24 24 0 0 1 2.438.664 10.83 10.83 0 0 1 2.214.987c.67.379 1.216.929 1.638 1.65s.633 1.575.633 2.561c0 1.644-.633 3.004-1.898 4.079-1.253 1.062-3.021 1.593-5.303 1.593-3.089 0-5.564-.986-7.425-2.959zm17.754-3.035V7.452h2.847v12.349c0 1.568.353 2.675 1.061 3.32.707.632 1.737.949 3.089.949 1.067 0 2.097-.272 3.089-.816s1.768-1.214 2.326-2.011V7.452h2.866v18.761h-2.866v-2.637c-.769.885-1.731 1.625-2.884 2.219s-2.376.892-3.666.892c-3.908 0-5.862-1.998-5.862-5.994zm19.466 5.52h2.847V12.934c.422-.771 1.147-1.461 2.177-2.068 1.03-.62 1.985-.93 2.866-.93.285 0 .651.025 1.098.076V7.016a6.44 6.44 0 0 0-3.368.948 9.62 9.62 0 0 0-2.773 2.485V7.452h-2.847v18.761zm9.976-9.409c0-1.796.385-3.44 1.154-4.932.782-1.505 1.867-2.694 3.257-3.566 1.389-.885 2.946-1.328 4.671-1.328 1.811 0 3.392.449 4.745 1.347s2.37 2.106 3.052 3.623c.694 1.505 1.041 3.206 1.041 5.103v.74H94.518c.112 1.846.757 3.389 1.935 4.629 1.191 1.239 2.742 1.859 4.652 1.859 1.079 0 2.115-.209 3.107-.626 1.005-.417 1.88-1.012 2.625-1.783l1.357 1.897c-1.947 1.948-4.385 2.921-7.312 2.921-2.755 0-5.012-.917-6.774-2.751s-2.643-4.211-2.643-7.133zm3.015-1.195h12.077c-.012-.721-.143-1.435-.391-2.144-.235-.708-.589-1.372-1.06-1.992s-1.104-1.119-1.898-1.499c-.794-.392-1.694-.588-2.699-.588-.943 0-1.799.19-2.568.569s-1.396.879-1.88 1.499c-.471.607-.844 1.271-1.117 1.992-.273.708-.428 1.429-.465 2.163z" fill-rule="evenodd"/></svg>