<svg width="104" height="104" viewBox="0 0 104 104" fill="none" xmlns="http://www.w3.org/2000/svg">
<g filter="url(#filter0_di_674_2)">
<rect x="2" width="100" height="100" rx="24.5" fill="#D9D9D9"/>
<rect x="2" width="100" height="100" rx="24.5" fill="url(#paint0_linear_674_2)"/>
<rect x="2" width="100" height="100" rx="24.5" fill="url(#paint1_linear_674_2)"/>
<g filter="url(#filter1_d_674_2)">
<path fill-rule="evenodd" clip-rule="evenodd" d="M31.9747 36.1912L52.4026 19.1842C57.0822 15.2883 63.974 15.9821 67.7958 20.734C71.6178 25.4859 70.9227 32.4964 66.2432 36.3923L63.8588 38.3773C65.5872 39.044 67.1719 40.1662 68.4258 41.7254C72.2478 46.4773 71.5525 53.4878 66.873 57.3836L63.5303 60.1667C65.2589 60.8332 66.8436 61.9555 68.0975 63.5149C71.9195 68.2668 71.2244 75.2772 66.5448 79.173C61.8653 83.069 54.9735 82.3749 51.1515 77.623C49.0887 75.0585 48.3418 71.8359 48.8269 68.8003C45.8062 68.6832 42.8494 67.3006 40.7868 64.7361C38.7242 62.1715 37.9772 58.9493 38.462 55.9137C35.4414 55.7968 32.4844 54.414 30.4218 51.8495C26.5999 47.0976 27.2951 40.0871 31.9747 36.1912ZM35.7759 40.9174C33.6668 42.6733 33.3534 45.833 35.076 47.9748C36.7985 50.1165 39.9047 50.4292 42.0139 48.6734L62.442 31.6662C64.5511 29.9102 64.8644 26.7505 63.1417 24.6087C61.4192 22.467 58.313 22.1543 56.2038 23.9103L35.7759 40.9174ZM46.1408 53.8038C44.0317 55.5599 43.7183 58.7196 45.4409 60.8613C47.1636 63.0031 50.2696 63.3158 52.3788 61.5598L63.0718 52.6575C65.1809 50.9016 65.4943 47.7419 63.7717 45.6002C62.049 43.4584 58.943 43.1457 56.8338 44.9015L46.1408 53.8038ZM55.8056 73.7483C54.0831 71.6066 54.3964 68.4468 56.5055 66.691C58.6146 64.9351 61.7209 65.2479 63.4434 67.3896C65.1661 69.5314 64.8528 72.6911 62.7437 74.4469C60.6345 76.2028 57.5283 75.89 55.8056 73.7483Z" fill="white"/>
</g>
</g>
<defs>
<filter id="filter0_di_674_2" x="0.5" y="0" width="103" height="104" filterUnits="userSpaceOnUse" color-interpolation-filters="sRGB">
<feFlood flood-opacity="0" result="BackgroundImageFix"/>
<feColorMatrix in="SourceAlpha" type="matrix" values="0 0 0 0 0 0 0 0 0 0 0 0 0 0 0 0 0 0 127 0" result="hardAlpha"/>
<feOffset dy="2"/>
<feGaussianBlur stdDeviation="0.75"/>
<feComposite in2="hardAlpha" operator="out"/>
<feColorMatrix type="matrix" values="0 0 0 0 0 0 0 0 0 0 0 0 0 0 0 0 0 0 0.25 0"/>
<feBlend mode="normal" in2="BackgroundImageFix" result="effect1_dropShadow_674_2"/>
<feBlend mode="normal" in="SourceGraphic" in2="effect1_dropShadow_674_2" result="shape"/>
<feColorMatrix in="SourceAlpha" type="matrix" values="0 0 0 0 0 0 0 0 0 0 0 0 0 0 0 0 0 0 127 0" result="hardAlpha"/>
<feOffset dy="4"/>
<feGaussianBlur stdDeviation="3.5"/>
<feComposite in2="hardAlpha" operator="arithmetic" k2="-1" k3="1"/>
<feColorMatrix type="matrix" values="0 0 0 0 1 0 0 0 0 1 0 0 0 0 1 0 0 0 0.3 0"/>
<feBlend mode="normal" in2="shape" result="effect2_innerShadow_674_2"/>
</filter>
<filter id="filter1_d_674_2" x="26.9546" y="16.6617" width="44.9385" height="68.0337" filterUnits="userSpaceOnUse" color-interpolation-filters="sRGB">
<feFlood flood-opacity="0" result="BackgroundImageFix"/>
<feColorMatrix in="SourceAlpha" type="matrix" values="0 0 0 0 0 0 0 0 0 0 0 0 0 0 0 0 0 0 127 0" result="hardAlpha"/>
<feOffset dy="2"/>
<feGaussianBlur stdDeviation="0.5"/>
<feComposite in2="hardAlpha" operator="out"/>
<feColorMatrix type="matrix" values="0 0 0 0 0 0 0 0 0 0 0 0 0 0 0 0 0 0 0.25 0"/>
<feBlend mode="normal" in2="BackgroundImageFix" result="effect1_dropShadow_674_2"/>
<feBlend mode="normal" in="SourceGraphic" in2="effect1_dropShadow_674_2" result="shape"/>
</filter>
<linearGradient id="paint0_linear_674_2" x1="52" y1="0" x2="52" y2="100" gradientUnits="userSpaceOnUse">
<stop stop-color="#010B2C"/>
<stop offset="1" stop-color="#1C2233"/>
</linearGradient>
<linearGradient id="paint1_linear_674_2" x1="52" y1="0" x2="52" y2="100" gradientUnits="userSpaceOnUse">
<stop stop-color="#FF6B28"/>
<stop offset="1" stop-color="#E74700"/>
</linearGradient>
</defs>
</svg>
